<?xml version="1.0" encoding="UTF-8"?>
<svg version="1.1" xmlns="http://www.w3.org/2000/svg" width="1360" height="648">
<path d="M0 0 C386.76 0 773.52 0 1172 0 C1172 47.85 1172 95.7 1172 145 C785.24 145 398.48 145 0 145 C0 97.15 0 49.3 0 0 Z " fill="#B5D0B8" transform="translate(0,503)"/>
<path d="M0 0 C193.71 0 387.42 0 587 0 C587 47.19 587 94.38 587 143 C393.29 143 199.58 143 0 143 C0 95.81 0 48.62 0 0 Z " fill="#216254" transform="translate(0,504)"/>
<path d="M0 0 C193.5 0 193.5 0 237.5 42.125 C271.5606498 77.01048035 281.45283995 126.94813249 283 174 C283.06380859 175.77310547 283.06380859 175.77310547 283.12890625 177.58203125 C283.75739611 213.57355068 278.43521916 250.28743736 263 283 C262.68836914 283.66580078 262.37673828 284.33160156 262.05566406 285.01757812 C247.0772322 316.43265955 219.82772456 340.33533239 187.14794922 351.98291016 C179.6403618 354.51220431 172.05266661 356.6250013 164.3125 358.3125 C163.63832031 358.45993652 162.96414063 358.60737305 162.26953125 358.75927734 C109.20858112 369.31454564 54.10062955 362 0 362 C0 242.54 0 123.08 0 0 Z M70 59 C70 139.52 70 220.04 70 303 C131.96199803 305.93099834 131.96199803 305.93099834 184 279 C210.50692382 249.38156506 214.72864344 207.32915034 212.859375 169.12597656 C210.98075774 135.38558358 204.47691766 103.47647909 179.41015625 79.09765625 C149.61307919 53.16405758 106.09882827 59 70 59 Z " fill="#000000" transform="translate(910,2)"/>
<path d="M0 0 C79.2 0 158.4 0 240 0 C240 19.47 240 38.94 240 59 C183.9 59 127.8 59 70 59 C70 87.05 70 115.1 70 144 C110.59 144 151.18 144 193 144 C193 163.47 193 182.94 193 203 C152.41 203 111.82 203 70 203 C70 236 70 269 70 303 C127.75 303 185.5 303 245 303 C245 322.47 245 341.94 245 362 C164.15 362 83.3 362 0 362 C0 242.54 0 123.08 0 0 Z " fill="#000000" transform="translate(303,2)"/>
<path d="M0 0 C199.59939427 0 199.59939427 0 234.6875 33.1875 C256.71693934 56.01050704 260.63049307 86.22572837 260.28125 116.66015625 C260.10474194 126.43862156 258.76256172 135.62742218 256 145 C255.80744629 145.65967773 255.61489258 146.31935547 255.41650391 146.99902344 C251.75987246 159.07782104 246.06217191 169.35036503 238 179 C237.47921875 179.66644531 236.9584375 180.33289063 236.421875 181.01953125 C218.39978237 203.19720349 188.07354813 211.34216373 161 215 C160.06513763 215.13176384 160.06513763 215.13176384 159.11138916 215.26618958 C150.20810267 216.34935433 141.25706622 216.12534138 132.3046875 216.09765625 C130.70646194 216.09618309 129.1082359 216.09516469 127.51000977 216.09460449 C121.63166574 216.08939494 115.7533321 216.07543375 109.875 216.0625 C96.71625 216.041875 83.5575 216.02125 70 216 C70 264.18 70 312.36 70 362 C46.9 362 23.8 362 0 362 C0 242.54 0 123.08 0 0 Z M70 57 C70 90.66 70 124.32 70 159 C81.01375 159.061875 92.0275 159.12375 103.375 159.1875 C108.53261963 159.22846802 108.53261963 159.22846802 113.79443359 159.27026367 C146.07561682 159.86760712 146.07561682 159.86760712 175 147 C175.825 146.443125 176.65 145.88625 177.5 145.3125 C186.4577268 137.02660271 189.7690094 126.12421397 190.3828125 114.21875 C190.84452376 98.23199757 189.61943704 84.2413834 178.1875 72.0703125 C162.62754719 57.45148587 139.95405646 56.82409816 119.8046875 56.90234375 C117.9031189 56.90385437 117.9031189 56.90385437 115.96313477 56.90539551 C111.26708053 56.91059306 106.57103927 56.9245541 101.875 56.9375 C91.35625 56.958125 80.8375 56.97875 70 57 Z " fill="#000000" transform="translate(605,2)"/>
<path d="M0 0 C97.35 0 194.7 0 295 0 C295 47.85 295 95.7 295 145 C197.65 145 100.3 145 0 145 C0 97.15 0 49.3 0 0 Z " fill="#000000" transform="translate(877,503)"/>
<path d="M0 0 C96.69 0 193.38 0 293 0 C293 47.19 293 94.38 293 143 C196.31 143 99.62 143 0 143 C0 95.81 0 48.62 0 0 Z " fill="#708B6E" transform="translate(294,504)"/>
<path d="M0 0 C11.04447568 10.81525415 17.35835399 25.21762379 17.59692383 40.60668945 C17.57885168 50.58580193 17.38294291 59.15665023 13.21655273 68.38500977 C12.79245117 69.3324707 12.36834961 70.27993164 11.93139648 71.25610352 C4.70671924 85.76583134 -7.83263232 96.42635164 -22.78344727 102.38500977 C-39.14117135 107.35208123 -55.44843414 106.563725 -70.97094727 99.26000977 C-86.80620624 90.78380172 -97.31658074 78.47004856 -102.75219727 61.33032227 C-106.92407603 45.53126289 -105.486436 29.12629667 -98.09594727 14.51000977 C-94.70240077 8.81705771 -90.45192674 4.06149693 -85.78344727 -0.61499023 C-85.14536133 -1.26467773 -84.50727539 -1.91436523 -83.84985352 -2.58374023 C-60.39523729 -24.81930157 -22.60733794 -21.04523244 0 0 Z M-86.78344727 11.38500977 C-95.56511689 22.93600259 -98.92388663 37.54621642 -97.15844727 51.82250977 C-94.5465204 66.34276109 -87.35159188 78.71606911 -75.49438477 87.59985352 C-61.59236765 96.75435182 -46.57565132 99.96295938 -30.19750977 96.66235352 C-27.28024422 95.73617795 -24.55918632 94.67132786 -21.78344727 93.38500977 C-20.99969727 93.03438477 -20.21594727 92.68375977 -19.40844727 92.32250977 C-5.56332335 85.39994781 4.04076571 72.81692429 8.90014648 58.34985352 C12.83865718 43.81810716 9.94017179 29.42342797 3.06811523 16.37329102 C-4.94586845 3.43933 -16.40379716 -4.28012002 -30.78344727 -8.61499023 C-31.38415039 -8.80706055 -31.98485352 -8.99913086 -32.60375977 -9.19702148 C-53.70867766 -13.24402187 -73.14776874 -4.51602111 -86.78344727 11.38500977 Z " fill="#000000" transform="translate(1342.783447265625,17.614990234375)"/>
<path d="M0 0 C30.55 0 30.55 0 36.875 5.5 C40.0366331 9.21956835 40.17912162 12.13796184 40.25 16.875 C40.27578125 17.90367188 40.3015625 18.93234375 40.328125 19.9921875 C39.81923323 24.65702871 37.88872675 27.17792776 34.5 30.3125 C32 32 32 32 29 32 C33.5430364 41.73178355 38.13018305 51.42638259 43 61 C40.36 61 37.72 61 35 61 C33.14338238 57.47895964 31.29211667 53.95516463 29.44580078 50.42871094 C28.81673913 49.22904458 28.18621123 48.03014591 27.55419922 46.83203125 C26.64687655 45.11139422 25.74522848 43.38776861 24.84375 41.6640625 C24.29912109 40.62717285 23.75449219 39.5902832 23.19335938 38.52197266 C22 36 22 36 22 34 C17.05 34 12.1 34 7 34 C7 42.91 7 51.82 7 61 C4.69 61 2.38 61 0 61 C0 40.87 0 20.74 0 0 Z M7 6 C7 13.26 7 20.52 7 28 C10.031875 28.061875 13.06375 28.12375 16.1875 28.1875 C17.13391357 28.21481201 18.08032715 28.24212402 19.05541992 28.27026367 C23.87300277 28.31782075 27.09859475 28.15610756 31 25 C33.73452784 21.90086845 34.24280806 19.52020189 34.0625 15.5 C33.8234936 12.01908628 32.93387494 10.92447428 30.58203125 8.23828125 C26.32065773 4.94519889 21.77790549 5.4504546 16.625 5.6875 C11.860625 5.8421875 11.860625 5.8421875 7 6 Z " fill="#000000" transform="translate(1281,32)"/>
</svg>
